#Comment line ignore any data following # character 
#Hierarchical Translation and Rotation (.htr) file 
[Header]	
#Header keywords are followed by a single value 
FileType HTR		#Single word string
DataType HTRS		#Translation followed by rotation and scale data
FileVersion 1		#integer
NumSegments 84		#integer
NumFrames 2		#integer
DataFrameRate 30		#integer, data frame rate in this file
EulerRotationOrder ZYX
CalibrationUnits mm
RotationUnits Degrees
GlobalAxisofGravity Y
BoneLengthAxis Y
ScaleFactor 1.00
[SegmentNames&Hierarchy]
#CHILD	PARENT
MASTER GLOBAL
root MASTER
chest root
L_mid_tent01 root
R_mid_tent01 root
spine01 root
Bip01_Neck chest
L_humerus chest
R_humerus chest
weapon_bone chest
Bip01_Head Bip01_Neck
eye_left_bone Bip01_Head
eye_right_bone Bip01_Head
L_forearm L_humerus
L_front_hand L_forearm
L_weapon_bone L_forearm
L_front_hand01_01 L_front_hand
L_front_hand02_01 L_front_hand
L_front_hand03_01 L_front_hand
L_front_hand01_02 L_front_hand01_01
L_front_hand02_02 L_front_hand02_01
L_front_hand03_02 L_front_hand03_01
R_forearm R_humerus
R_front_hand R_forearm
R_weapon_bone R_forearm
R_front_hand01_01 R_front_hand
R_front_hand02_01 R_front_hand
R_front_hand03_01 R_front_hand
R_front_hand01_02 R_front_hand01_01
R_front_hand02_02 R_front_hand02_01
R_front_hand03_02 R_front_hand03_01
null_rope01_connect L_mid_tent01
Rope1_Seg01 null_rope01_connect
Rope1_Seg02 Rope1_Seg01
Rope1_Seg03 Rope1_Seg02
Rope1_Seg04 Rope1_Seg03
Rope1_Seg05 Rope1_Seg04
Rope1_Seg06 Rope1_Seg05
Rope1_Seg07 Rope1_Seg06
Rope1_Seg09 Rope1_Seg07
L_mid_hand01 Rope1_Seg09
L_mid_hand02 Rope1_Seg09
L_mid_hand03 Rope1_Seg09
null_rope02_connect R_mid_tent01
Rope2_Seg01 null_rope02_connect
Rope2_Seg02 Rope2_Seg01
Rope2_Seg03 Rope2_Seg02
Rope2_Seg04 Rope2_Seg03
Rope2_Seg05 Rope2_Seg04
Rope2_Seg06 Rope2_Seg05
Rope2_Seg07 Rope2_Seg06
Rope2_Seg09 Rope2_Seg07
R_mid_hand01 Rope2_Seg09
R_mid_hand02 Rope2_Seg09
R_mid_hand03 Rope2_Seg09
spine02 spine01
spine03 spine02
pelvis spine03
null_rope03_connect pelvis
null_rope04_connect pelvis
Rope3_Seg01 null_rope03_connect
Rope3_Seg02 Rope3_Seg01
Rope3_Seg03 Rope3_Seg02
Rope3_Seg04 Rope3_Seg03
Rope3_Seg05 Rope3_Seg04
Rope3_Seg06 Rope3_Seg05
Rope3_Seg07 Rope3_Seg06
Rope3_Seg08 Rope3_Seg07
Rope3_Seg09 Rope3_Seg08
R_rear_hand01 Rope3_Seg09
R_rear_hand02 Rope3_Seg09
R_rear_hand03 Rope3_Seg09
Rope4_Seg01 null_rope04_connect
Rope4_Seg02 Rope4_Seg01
Rope4_Seg03 Rope4_Seg02
Rope4_Seg04 Rope4_Seg03
Rope4_Seg05 Rope4_Seg04
Rope4_Seg06 Rope4_Seg05
Rope4_Seg07 Rope4_Seg06
Rope4_Seg08 Rope4_Seg07
Rope4_Seg09 Rope4_Seg08
L_rear_hand01 Rope4_Seg09
L_rear_hand02 Rope4_Seg09
L_rear_hand03 Rope4_Seg09
[BasePosition]
#SegmentName Tx, Ty, Tz, Rx, Ry, Rz, BoneLength
MASTER 0.000000 0.000000 0.000000 -90.000000 0.000000 0.000000 10.000000 
root 0.000000 0.000000 0.000000 0.000000 0.000000 0.000000 10.000000 
chest 0.000000 0.000000 0.000000 0.000000 0.000000 0.000000 10.000000 
L_mid_tent01 0.000000 0.000000 0.000000 0.000000 0.000000 0.000000 10.000000 
R_mid_tent01 0.000000 0.000000 0.000000 0.000000 0.000000 0.000000 10.000000 
spine01 0.000000 0.000000 0.000000 0.000000 0.000000 0.000000 10.000000 
Bip01_Neck 0.000000 0.000000 0.000000 0.000000 0.000000 0.000000 10.000000 
L_humerus 0.000000 0.000000 0.000000 0.000000 0.000000 0.000000 10.000000 
R_humerus 0.000000 0.000000 0.000000 0.000000 0.000000 0.000000 10.000000 
weapon_bone 0.000000 0.000000 0.000000 0.000000 0.000000 0.000000 10.000000 
Bip01_Head 0.000000 0.000000 0.000000 0.000000 0.000000 0.000000 10.000000 
eye_left_bone 0.000000 0.000000 0.000000 0.000000 0.000000 0.000000 10.000000 
eye_right_bone 0.000000 0.000000 0.000000 0.000000 0.000000 0.000000 10.000000 
L_forearm 0.000000 0.000000 0.000000 0.000000 0.000000 0.000000 10.000000 
L_front_hand 0.000000 0.000000 0.000000 0.000000 0.000000 0.000000 10.000000 
L_weapon_bone 0.000000 0.000000 0.000000 0.000000 0.000000 0.000000 10.000000 
L_front_hand01_01 0.000000 0.000000 0.000000 0.000000 0.000000 0.000000 10.000000 
L_front_hand02_01 0.000000 0.000000 0.000000 0.000000 0.000000 0.000000 10.000000 
L_front_hand03_01 0.000000 0.000000 0.000000 0.000000 0.000000 0.000000 10.000000 
L_front_hand01_02 0.000000 0.000000 0.000000 0.000000 0.000000 0.000000 10.000000 
L_front_hand02_02 0.000000 0.000000 0.000000 0.000000 0.000000 0.000000 10.000000 
L_front_hand03_02 0.000000 0.000000 0.000000 0.000000 0.000000 0.000000 10.000000 
R_forearm 0.000000 0.000000 0.000000 0.000000 0.000000 0.000000 10.000000 
R_front_hand 0.000000 0.000000 0.000000 0.000000 0.000000 0.000000 10.000000 
R_weapon_bone 0.000000 0.000000 0.000000 0.000000 0.000000 0.000000 10.000000 
R_front_hand01_01 0.000000 0.000000 0.000000 0.000000 0.000000 0.000000 10.000000 
R_front_hand02_01 0.000000 0.000000 0.000000 0.000000 0.000000 0.000000 10.000000 
R_front_hand03_01 0.000000 0.000000 0.000000 0.000000 0.000000 0.000000 10.000000 
R_front_hand01_02 0.000000 0.000000 0.000000 0.000000 0.000000 0.000000 10.000000 
R_front_hand02_02 0.000000 0.000000 0.000000 0.000000 0.000000 0.000000 10.000000 
R_front_hand03_02 0.000000 0.000000 0.000000 0.000000 0.000000 0.000000 10.000000 
null_rope01_connect 0.000000 0.000000 0.000000 0.000000 0.000000 0.000000 10.000000 
Rope1_Seg01 0.000000 0.000000 0.000000 0.000000 0.000000 0.000000 10.000000 
Rope1_Seg02 0.000000 0.000000 0.000000 0.000000 0.000000 0.000000 10.000000 
Rope1_Seg03 0.000000 0.000000 0.000000 0.000000 0.000000 0.000000 10.000000 
Rope1_Seg04 0.000000 0.000000 0.000000 0.000000 0.000000 0.000000 10.000000 
Rope1_Seg05 0.000000 0.000000 0.000000 0.000000 0.000000 0.000000 10.000000 
Rope1_Seg06 0.000000 0.000000 0.000000 0.000000 0.000000 0.000000 10.000000 
Rope1_Seg07 0.000000 0.000000 0.000000 0.000000 0.000000 0.000000 10.000000 
Rope1_Seg09 0.000000 0.000000 0.000000 0.000000 0.000000 0.000000 10.000000 
L_mid_hand01 0.000000 0.000000 0.000000 0.000000 0.000000 0.000000 10.000000 
L_mid_hand02 0.000000 0.000000 0.000000 0.000000 0.000000 0.000000 10.000000 
L_mid_hand03 0.000000 0.000000 0.000000 0.000000 0.000000 0.000000 10.000000 
null_rope02_connect 0.000000 0.000000 0.000000 0.000000 0.000000 0.000000 10.000000 
Rope2_Seg01 0.000000 0.000000 0.000000 0.000000 0.000000 0.000000 10.000000 
Rope2_Seg02 0.000000 0.000000 0.000000 0.000000 0.000000 0.000000 10.000000 
Rope2_Seg03 0.000000 0.000000 0.000000 0.000000 0.000000 0.000000 10.000000 
Rope2_Seg04 0.000000 0.000000 0.000000 0.000000 0.000000 0.000000 10.000000 
Rope2_Seg05 0.000000 0.000000 0.000000 0.000000 0.000000 0.000000 10.000000 
Rope2_Seg06 0.000000 0.000000 0.000000 0.000000 0.000000 0.000000 10.000000 
Rope2_Seg07 0.000000 0.000000 0.000000 0.000000 0.000000 0.000000 10.000000 
Rope2_Seg09 0.000000 0.000000 0.000000 0.000000 0.000000 0.000000 10.000000 
R_mid_hand01 0.000000 0.000000 0.000000 0.000000 0.000000 0.000000 10.000000 
R_mid_hand02 0.000000 0.000000 0.000000 0.000000 0.000000 0.000000 10.000000 
R_mid_hand03 0.000000 0.000000 0.000000 0.000000 0.000000 0.000000 10.000000 
spine02 0.000000 0.000000 0.000000 0.000000 0.000000 0.000000 10.000000 
spine03 0.000000 0.000000 0.000000 0.000000 0.000000 0.000000 10.000000 
pelvis 0.000000 0.000000 0.000000 0.000000 0.000000 0.000000 10.000000 
null_rope03_connect 0.000000 0.000000 0.000000 0.000000 0.000000 0.000000 10.000000 
null_rope04_connect 0.000000 0.000000 0.000000 0.000000 0.000000 0.000000 10.000000 
Rope3_Seg01 0.000000 0.000000 0.000000 0.000000 0.000000 0.000000 10.000000 
Rope3_Seg02 0.000000 0.000000 0.000000 0.000000 0.000000 0.000000 10.000000 
Rope3_Seg03 0.000000 0.000000 0.000000 0.000000 0.000000 0.000000 10.000000 
Rope3_Seg04 0.000000 0.000000 0.000000 0.000000 0.000000 0.000000 10.000000 
Rope3_Seg05 0.000000 0.000000 0.000000 0.000000 0.000000 0.000000 10.000000 
Rope3_Seg06 0.000000 0.000000 0.000000 0.000000 0.000000 0.000000 10.000000 
Rope3_Seg07 0.000000 0.000000 0.000000 0.000000 0.000000 0.000000 10.000000 
Rope3_Seg08 0.000000 0.000000 0.000000 0.000000 0.000000 0.000000 10.000000 
Rope3_Seg09 0.000000 0.000000 0.000000 0.000000 0.000000 0.000000 10.000000 
R_rear_hand01 0.000000 0.000000 0.000000 0.000000 0.000000 0.000000 10.000000 
R_rear_hand02 0.000000 0.000000 0.000000 0.000000 0.000000 0.000000 10.000000 
R_rear_hand03 0.000000 0.000000 0.000000 0.000000 0.000000 0.000000 10.000000 
Rope4_Seg01 0.000000 0.000000 0.000000 0.000000 0.000000 0.000000 10.000000 
Rope4_Seg02 0.000000 0.000000 0.000000 0.000000 0.000000 0.000000 10.000000 
Rope4_Seg03 0.000000 0.000000 0.000000 0.000000 0.000000 0.000000 10.000000 
Rope4_Seg04 0.000000 0.000000 0.000000 0.000000 0.000000 0.000000 10.000000 
Rope4_Seg05 0.000000 0.000000 0.000000 0.000000 0.000000 0.000000 10.000000 
Rope4_Seg06 0.000000 0.000000 0.000000 0.000000 0.000000 0.000000 10.000000 
Rope4_Seg07 0.000000 0.000000 0.000000 0.000000 0.000000 0.000000 10.000000 
Rope4_Seg08 0.000000 0.000000 0.000000 0.000000 0.000000 0.000000 10.000000 
Rope4_Seg09 0.000000 0.000000 0.000000 0.000000 0.000000 0.000000 10.000000 
L_rear_hand01 0.000000 0.000000 0.000000 0.000000 0.000000 0.000000 10.000000 
L_rear_hand02 0.000000 0.000000 0.000000 0.000000 0.000000 0.000000 10.000000 
L_rear_hand03 0.000000 0.000000 0.000000 0.000000 0.000000 0.000000 10.000000 
#Beginning of Data. Separated by tabs
#Fr	Tx	Ty	Tz	Rx	Ry	Rz	SF
[MASTER]
29 0.000003 -0.000029 -4733.634277 0.001660 0.001660 0.001660 4733.634766
30 0.000003 -0.000027 -4927.127930 0.001660 0.001660 0.001660 4927.127930
[root]
29 -16.502302 1.063087 1452.484619 -68.359657 -11.936722 -99.054535 1452.578735
30 -16.502304 2.344632 1451.820923 -72.508469 -14.660487 -97.307671 1451.916626
[chest]
29 -84.512650 -34.090519 0.000000 -0.113365 -1.472201 171.985580 91.129311
30 -84.512650 -34.090519 0.000000 -1.017820 -1.889482 178.526199 91.129311
[L_mid_tent01]
29 27.299234 22.178734 -249.918625 4.507671 15.639084 82.209290 252.381592
30 27.299232 22.178747 -249.918625 4.339792 22.516127 81.965675 252.381592
[R_mid_tent01]
29 23.228794 24.509907 226.238495 164.482910 -10.125053 77.225136 228.744751
30 23.228794 24.509907 226.238495 164.220261 -21.301880 79.749741 228.744751
[spine01]
29 -0.361383 -0.195265 0.000000 0.002005 0.001220 27.342920 0.410763
30 -0.361383 -0.195265 0.000000 0.001938 0.001324 21.316614 0.410763
[Bip01_Neck]
29 165.484543 71.581718 0.000119 176.643677 -1.657967 43.431911 180.302734
30 165.484543 71.581718 0.000119 176.643677 -1.657967 43.431911 180.302734
[L_humerus]
29 -13.983130 -135.272980 -120.471481 164.365295 21.876207 -67.533821 181.680161
30 -13.983130 -135.272980 -120.471481 166.010681 24.761600 -70.815697 181.680161
[R_humerus]
29 -13.983309 -135.273102 125.287651 -177.084381 -14.953943 -85.832062 184.909012
30 -13.983309 -135.273102 125.287651 -176.937637 -19.863903 -86.063141 184.909012
[weapon_bone]
29 235.964890 -300.705902 0.000000 0.000000 -89.951546 -128.212341 382.234833
30 235.964890 -300.705902 0.000000 0.000000 -89.951546 -128.212341 382.234833
[Bip01_Head]
29 213.433075 185.747375 11.366883 4.987260 10.061245 -43.762234 283.169495
30 213.436890 185.736786 11.503602 4.970814 8.175819 -43.795582 283.170959
[eye_left_bone]
29 -24.626970 125.451866 -64.772606 0.000000 -90.000000 -99.840431 143.318359
30 -24.626970 125.451866 -64.772606 0.000000 -90.000000 -99.840431 143.318359
[eye_right_bone]
29 -24.626970 125.451866 64.327362 0.000000 -89.965736 80.156380 143.117676
30 -24.626970 125.451866 64.327362 0.000000 -89.965736 80.156380 143.117676
[L_forearm]
29 322.776093 0.000000 -0.000119 0.000111 -0.002345 -95.433662 322.776093
30 322.776093 0.000000 -0.000119 0.000113 -0.002345 -95.507172 322.776093
[L_front_hand]
29 241.149185 -0.042021 -3.300071 -178.660538 -1.832372 -27.585402 241.171753
30 241.149185 -0.042021 -3.300071 -178.666733 -1.834559 -27.498735 241.171753
[L_weapon_bone]
29 156.183838 0.000000 0.000000 0.000014 0.000007 0.000001 156.183838
30 156.183838 0.000000 0.000000 0.000014 0.000007 0.000001 156.183838
[L_front_hand01_01]
29 86.095154 20.947098 -0.655860 -0.366594 -0.477154 75.385574 88.609184
30 86.095154 20.947098 -0.655860 -0.366594 -0.477154 75.385574 88.609184
[L_front_hand02_01]
29 86.935165 -11.437475 24.513514 154.399796 -59.883835 -61.369587 91.046425
30 86.935165 -11.437475 24.513514 154.399796 -59.883835 -61.369587 91.046425
[L_front_hand03_01]
29 86.637497 -14.123976 -20.424902 -153.913849 58.118122 -62.702866 90.126129
30 86.637497 -14.123976 -20.424902 -153.913849 58.118122 -62.702866 90.126129
[L_front_hand01_02]
29 71.020905 -0.000179 0.000030 0.000334 -0.002323 -106.379684 71.020905
30 71.020905 -0.000179 0.000030 0.000334 -0.002323 -106.379684 71.020905
[L_front_hand02_02]
29 71.020927 -0.000119 0.000060 0.000334 -0.002323 -106.379684 71.020927
30 71.020927 -0.000119 0.000060 0.000334 -0.002323 -106.379684 71.020927
[L_front_hand03_02]
29 71.020905 -0.000060 0.000060 0.000334 -0.002323 -106.379684 71.020905
30 71.020905 -0.000060 0.000060 0.000334 -0.002323 -106.379684 71.020905
[R_forearm]
29 322.776428 -0.000060 0.000030 0.213161 0.008483 -93.940521 322.776428
30 322.776428 -0.000060 0.000030 0.213155 0.008634 -94.021690 322.776428
[R_front_hand]
29 238.847015 -0.006795 2.210259 -2.595765 -10.654902 -26.504883 238.857239
30 238.847015 -0.006795 2.210259 -2.616259 -10.650020 -26.400963 238.857239
[R_weapon_bone]
29 155.664093 0.002503 -0.000030 0.003487 0.001180 -90.988930 155.664078
30 155.664093 0.002503 -0.000030 0.003487 0.001180 -90.988930 155.664078
[R_front_hand01_01]
29 87.624611 14.231146 22.918642 -154.633499 -59.950619 61.746044 91.683487
30 87.624611 14.231146 22.918642 -154.633484 -59.950619 61.746037 91.683487
[R_front_hand02_01]
29 89.356956 14.367283 -19.491137 154.602661 58.302849 63.744389 92.579636
30 89.356956 14.367283 -19.491137 154.602661 58.302849 63.744389 92.579636
[R_front_hand03_01]
29 87.286232 -22.307278 -0.143439 0.162155 -0.423168 -75.767921 90.091743
30 87.286232 -22.307278 -0.143439 0.162155 -0.423168 -75.767921 90.091743
[R_front_hand01_02]
29 71.020905 0.000060 0.000119 0.002323 -0.000334 106.381714 71.020905
30 71.020905 0.000060 0.000119 0.002323 -0.000334 106.381714 71.020905
[R_front_hand02_02]
29 71.020844 -0.000030 -0.000119 0.002323 -0.000334 106.381714 71.020836
30 71.020844 -0.000030 -0.000119 0.002323 -0.000334 106.381714 71.020836
[R_front_hand03_02]
29 71.020905 0.000000 0.000030 0.002323 -0.000334 106.381714 71.020905
30 71.020905 0.000000 0.000030 0.002323 -0.000334 106.381714 71.020905
[null_rope01_connect]
29 328.732483 0.000000 -0.000238 -60.418072 -73.846107 80.149597 328.732483
30 328.732483 0.000000 -0.000238 -98.241570 -74.325462 120.516502 328.732483
[Rope1_Seg01]
29 0.000049 -0.000045 0.000194 -16.025707 29.227892 159.158051 0.000205
30 0.000050 -0.000045 0.000201 -15.912751 17.668261 158.485382 0.000212
[Rope1_Seg02]
29 139.999863 -0.000179 0.000000 -0.169756 5.211432 -7.571436 139.999863
30 139.999863 -0.000179 0.000000 -0.157530 4.105060 -6.371489 139.999863
[Rope1_Seg03]
29 139.999924 0.000060 -0.000060 -0.097935 6.206808 -8.600101 139.999924
30 139.999924 0.000060 -0.000060 -0.073623 4.123712 -5.664792 139.999924
[Rope1_Seg04]
29 139.999924 -0.000060 -0.000119 -0.587738 6.322126 -6.532969 139.999924
30 139.999924 -0.000060 -0.000119 -0.382040 3.708625 -2.678069 139.999924
[Rope1_Seg05]
29 139.999832 0.000119 -0.000060 3.919593 6.710720 -15.016693 139.999832
30 139.999832 0.000119 -0.000060 1.832795 4.002301 -11.620130 139.999832
[Rope1_Seg06]
29 139.999954 0.000119 -0.000060 32.101849 6.374446 -27.145212 139.999954
30 139.999954 0.000119 -0.000060 9.195996 3.905134 -20.656935 139.999954
[Rope1_Seg07]
29 139.999985 0.000060 0.000000 51.358292 -5.333373 -16.781404 139.999985
30 139.999985 0.000060 0.000000 12.147807 0.660865 -13.427926 139.999985
[Rope1_Seg09]
29 121.602913 0.000119 -0.000089 -89.793175 -1.359789 0.847147 121.602913
30 121.602913 0.000119 -0.000089 -89.793175 -1.359789 0.847147 121.602913
[L_mid_hand01]
29 103.859421 1.038730 8.195221 130.544373 -67.584534 -38.866943 104.187431
30 103.859421 1.038730 8.195221 130.544373 -67.584534 -38.866943 104.187431
[L_mid_hand02]
29 105.572853 -4.139662 -10.864139 -168.923172 43.409309 -73.498886 106.211075
30 105.572853 -4.139662 -10.864139 -168.923172 43.409309 -73.498886 106.211075
[L_mid_hand03]
29 104.641464 17.579376 -3.913581 -6.012627 17.808174 74.893669 106.179977
30 104.641464 17.579376 -3.913581 -6.012627 17.808178 74.893677 106.179977
[null_rope02_connect]
29 328.732849 0.000179 -0.000119 -146.741013 63.207794 1.949606 328.732849
30 328.732849 0.000179 -0.000119 -141.541092 54.925632 5.594856 328.732849
[Rope2_Seg01]
29 0.000045 0.000108 0.000000 96.598740 -8.973156 3.406014 0.000117
30 0.000049 0.000109 0.000000 91.710014 -4.049681 1.761776 0.000119
[Rope2_Seg02]
29 139.999741 -0.000060 -0.000119 -5.397953 -3.189419 -4.614194 139.999756
30 139.999741 -0.000060 -0.000119 -5.347829 -3.759165 -4.237583 139.999756
[Rope2_Seg03]
29 140.000107 0.000030 0.000000 -8.392436 -4.172708 -7.498744 140.000107
30 140.000107 0.000030 0.000000 -8.878543 -5.208869 -7.166849 140.000107
[Rope2_Seg04]
29 139.999802 0.000000 -0.000060 -12.801168 -4.063715 -13.786286 139.999802
30 139.999802 0.000000 -0.000060 -14.766632 -6.083188 -13.856487 139.999802
[Rope2_Seg05]
29 139.999985 -0.000060 0.000119 -13.592356 0.256592 -21.597921 139.999985
30 139.999985 -0.000060 0.000119 -16.600510 -2.257315 -22.699022 139.999985
[Rope2_Seg06]
29 139.999893 -0.000030 -0.000119 -10.812657 -5.559675 -23.867002 139.999893
30 139.999893 -0.000030 -0.000119 -13.028184 -3.815132 -26.377775 139.999893
[Rope2_Seg07]
29 139.999893 0.000060 -0.000060 -7.531119 -5.725500 -23.722925 139.999893
30 139.999893 0.000060 -0.000060 -7.090976 -1.114121 -23.317259 139.999893
[Rope2_Seg09]
29 121.338966 0.000089 -0.000060 33.793236 -1.359788 -0.847141 121.338966
30 121.338966 0.000089 -0.000060 33.793236 -1.359788 -0.847141 121.338966
[R_mid_hand01]
29 104.680779 11.144459 -10.335981 -16.212063 45.237247 70.462852 105.778534
30 104.680779 11.144459 -10.335981 -16.212063 45.237247 70.462852 105.778534
[R_mid_hand02]
29 104.070427 2.443552 8.231699 49.067368 -67.749771 39.286453 104.424065
30 104.070427 2.443552 8.231699 49.067368 -67.749771 39.286453 104.424065
[R_mid_hand03]
29 106.028137 -11.221827 -5.996406 -177.101105 15.551026 -76.585571 106.788818
30 106.028137 -11.221827 -5.996406 -177.101105 15.551026 -76.585571 106.788818
[spine02]
29 129.756927 0.001550 0.000119 -1.078875 -3.922862 7.573665 129.756927
30 129.756927 0.001550 0.000119 -1.062889 -3.920646 7.332544 129.756927
[spine03]
29 78.614006 0.082758 -4.898985 1.003209 4.171388 3.706146 78.766548
30 78.614006 0.082697 -4.898986 1.013864 4.162374 3.869861 78.766548
[pelvis]
29 169.435242 0.051022 0.000000 0.025630 -0.184626 -11.745173 169.435257
30 169.435242 0.051022 0.000000 0.025125 -0.184696 -11.431992 169.435257
[null_rope03_connect]
29 -1.257226 -2.466202 137.391083 -11.289301 -68.790390 88.107292 137.418976
30 -1.257226 -2.466202 137.391083 -9.257629 -73.216881 93.996124 137.418976
[null_rope04_connect]
29 -1.259640 -2.480268 -137.844437 -11.289301 -68.790390 88.107292 137.872513
30 -1.259640 -2.480268 -137.844437 -9.257629 -73.216881 93.996124 137.872513
[Rope3_Seg01]
29 -0.000018 0.000024 0.000139 38.796085 -50.998917 -98.400002 0.000142
30 -0.000019 0.000025 0.000149 32.699352 -56.398468 -88.243164 0.000152
[Rope3_Seg02]
29 139.999924 -0.000119 0.000060 2.962349 5.694480 21.936581 139.999924
30 139.999924 -0.000119 0.000060 2.444281 7.761908 23.437193 139.999924
[Rope3_Seg03]
29 139.999924 -0.000119 0.000119 1.697166 11.588369 31.273975 139.999924
30 139.999924 -0.000119 0.000119 0.682216 10.829061 26.883984 139.999924
[Rope3_Seg04]
29 139.999924 0.000119 0.000000 -2.407036 8.179468 20.054655 139.999924
30 139.999924 0.000119 0.000000 -1.418553 7.216380 15.451891 139.999924
[Rope3_Seg05]
29 139.999924 -0.000238 0.000060 -20.638628 -5.847048 15.287610 139.999924
30 139.999924 -0.000238 0.000060 -11.563549 -0.812449 12.156189 139.999924
[Rope3_Seg06]
29 139.999893 -0.000119 -0.000060 -31.703775 -17.790573 12.910708 139.999893
30 139.999893 -0.000119 -0.000060 -34.841904 -9.466889 16.591341 139.999893
[Rope3_Seg07]
29 139.999771 0.000060 -0.000119 -12.962454 -12.560187 3.096693 139.999771
30 139.999771 0.000060 -0.000119 -27.435131 -13.998302 8.373457 139.999771
[Rope3_Seg08]
29 139.999985 -0.000060 0.000000 -5.033191 -7.176821 0.213344 139.999985
30 139.999985 -0.000060 0.000000 -10.587170 -9.392435 1.013400 139.999985
[Rope3_Seg09]
29 90.185997 -0.000179 -0.000060 89.793228 -1.359877 -0.847183 90.185997
30 90.185997 -0.000179 -0.000060 89.793228 -1.359877 -0.847183 90.185997
[R_rear_hand01]
29 103.366196 -6.073594 -10.757982 -177.714203 24.565960 -73.910950 104.101845
30 103.366196 -6.073594 -10.757982 -177.714203 24.565960 -73.910950 104.101845
[R_rear_hand02]
29 100.509819 12.039542 -7.992327 -12.874829 36.868488 72.167213 101.543350
30 100.509819 12.039542 -7.992327 -12.874829 36.868488 72.167213 101.543350
[R_rear_hand03]
29 101.539970 5.215704 5.435467 71.484581 -71.816628 21.513813 101.819031
30 101.539970 5.215704 5.435467 71.484581 -71.816628 21.513813 101.819031
[Rope4_Seg01]
29 0.000000 0.000000 0.000000 -81.143028 -28.654133 -138.484436 0.000000
30 0.000000 0.000000 0.000000 -80.659302 -36.989384 -135.927139 0.000000
[Rope4_Seg02]
29 139.999985 0.000060 0.000119 -5.992561 7.938496 17.570612 139.999985
30 139.999985 0.000060 0.000119 -7.075755 7.540862 24.771162 139.999985
[Rope4_Seg03]
29 139.999924 0.000000 -0.000238 -16.062729 4.480172 21.683010 139.999924
30 139.999924 0.000000 -0.000238 -18.209721 -0.646482 26.684704 139.999924
[Rope4_Seg04]
29 139.999985 0.000000 0.000119 -18.736078 -1.626141 17.012880 139.999985
30 139.999985 0.000000 0.000119 -15.961674 -0.824372 19.142511 139.999985
[Rope4_Seg05]
29 139.999802 -0.000060 -0.000119 -27.187553 2.100245 21.807480 139.999802
30 139.999802 -0.000060 -0.000119 -21.812588 4.041537 22.108479 139.999802
[Rope4_Seg06]
29 139.999924 0.000000 0.000060 -27.100843 -5.072877 17.816671 139.999924
30 139.999924 0.000000 0.000060 -16.594389 -2.706613 12.271194 139.999924
[Rope4_Seg07]
29 139.999802 0.000000 0.000000 -9.873339 -6.413434 5.818250 139.999802
30 139.999802 0.000000 0.000000 -8.049215 -3.509006 5.344463 139.999802
[Rope4_Seg08]
29 139.999924 0.000000 0.000119 -5.881306 -3.999309 2.551174 139.999924
30 139.999924 0.000000 0.000119 -5.697906 -2.379583 2.715624 139.999924
[Rope4_Seg09]
29 90.185791 0.000060 0.000060 -135.617828 2.228885 0.850567 90.185791
30 90.185791 0.000060 0.000060 -135.617828 2.228885 0.850567 90.185791
[L_rear_hand01]
29 101.696655 -8.392275 -7.654577 -12.874829 -36.868488 107.832764 102.329041
30 101.696655 -8.392275 -7.654577 -12.874829 -36.868488 107.832764 102.329041
[L_rear_hand02]
29 102.726799 -1.568258 5.773216 71.484581 71.816628 158.486160 102.900848
30 102.726799 -1.568258 5.773216 71.484581 71.816628 158.486160 102.900848
[L_rear_hand03]
29 104.552910 9.721220 -10.420293 -177.714203 -24.565960 -106.089035 105.519653
30 104.552910 9.721220 -10.420293 -177.714203 -24.565960 -106.089035 105.519653
